C:\Users\movea\Dropbox\PhDWork\ExperimentalData\subject7\100\P7S100W02_filtered35.mot
nRows=16
nColumns=28

name C:\Users\movea\Dropbox\PhDWork\ExperimentalData\subject7\100\P7S100W02_filtered35.mot
datacolumns 28
datarows 16
range 0.5000000000 0.5150000000
endheader
time	ground_force_1_vx	ground_force_1_vy	ground_force_1_vz	ground_force_1_px	ground_force_1_py	ground_force_1_pz	ground_moment_1_mx	ground_moment_1_my	ground_moment_1_mz	ground_force_2_vx	ground_force_2_vy	ground_force_2_vz	ground_force_2_px	ground_force_2_py	ground_force_2_pz	ground_moment_2_mx	ground_moment_2_my	ground_moment_2_mz	ground_force_3_vx	ground_force_3_vy	ground_force_3_vz	ground_force_3_px	ground_force_3_py	ground_force_3_pz	ground_moment_3_mx	ground_moment_3_my	ground_moment_3_mz
        0.5000000000	       -0.0000000000	        0.0000000000	        0.0000000000	        0.1988394958	        0.0000558755	       -0.3004071327	       -0.0000000000	        0.0000000000	       -0.0000000000	       24.9672826068	      591.1243808825	       80.3626209372	        0.2029003516	       -0.0000795827	        0.4543649445	      103.1146462467	        1.2771001834	      -38.2713763383	        0.0000000000	        0.0000000000	        0.0000000000	        0.2076431971	        0.0000770316	        1.3583900146	        0.0000000000	        0.0000000000	        0.0000000000	
        0.5010000000	       -0.0000000000	        0.0000000000	        0.0000000000	        0.1988394958	        0.0000558755	       -0.3004071327	       -0.0000000000	        0.0000000000	       -0.0000000000	       24.7407640558	      590.6080980284	       79.2610149673	        0.2029003516	       -0.0000795827	        0.4543649445	      102.9912051532	        1.2393535474	      -38.2298495283	        0.0000000000	        0.0000000000	        0.0000000000	        0.2076431971	        0.0000770316	        1.3583900146	        0.0000000000	        0.0000000000	        0.0000000000	
        0.5020000000	       -0.0000000000	        0.0000000000	        0.0000000000	        0.1988394958	        0.0000558755	       -0.3004071327	       -0.0000000000	        0.0000000000	       -0.0000000000	       24.5166239186	      590.0479483562	       78.1549429244	        0.2029003516	       -0.0000795827	        0.4543649445	      102.8590527498	        1.2016129269	      -38.1851039093	        0.0000000000	        0.0000000000	        0.0000000000	        0.2076431971	        0.0000770316	        1.3583900146	        0.0000000000	        0.0000000000	        0.0000000000	
        0.5030000000	       -0.0000000000	        0.0000000000	        0.0000000000	        0.1988394958	        0.0000558755	       -0.3004071327	       -0.0000000000	        0.0000000000	       -0.0000000000	       24.2940648375	      589.4463021925	       77.0439998338	        0.2029003516	       -0.0000795827	        0.4543649445	      102.7177365820	        1.1635215448	      -38.1369184645	        0.0000000000	        0.0000000000	        0.0000000000	        0.2076431971	        0.0000770316	        1.3583900146	        0.0000000000	        0.0000000000	        0.0000000000	
        0.5040000000	       -0.0000000000	        0.0000000000	        0.0000000000	        0.1988394958	        0.0000558755	       -0.3004071327	       -0.0000000000	        0.0000000000	       -0.0000000000	       24.0719558058	      588.8051848605	       75.9279451499	        0.2029003516	       -0.0000795827	        0.4543649445	      102.5665193294	        1.1248592121	      -38.0853660753	        0.0000000000	        0.0000000000	        0.0000000000	        0.2076431971	        0.0000770316	        1.3583900146	        0.0000000000	        0.0000000000	        0.0000000000	
        0.5050000000	       -0.0000000000	        0.0000000000	        0.0000000000	        0.1988394958	        0.0000558755	       -0.3004071327	       -0.0000000000	        0.0000000000	       -0.0000000000	       23.8489123767	      588.1244958354	       74.8065564537	        0.2029003516	       -0.0000795827	        0.4543649445	      102.4048184878	        1.0857025375	      -38.0306432542	        0.0000000000	        0.0000000000	        0.0000000000	        0.2076431971	        0.0000770316	        1.3583900146	        0.0000000000	        0.0000000000	        0.0000000000	
        0.5060000000	       -0.0000000000	        0.0000000000	        0.0000000000	        0.1988394958	        0.0000558755	       -0.3004071327	       -0.0000000000	        0.0000000000	       -0.0000000000	       23.6237241303	      587.4028971048	       73.6795736250	        0.2029003516	       -0.0000795827	        0.4543649445	      102.2323534532	        1.0462574344	      -37.9727382511	        0.0000000000	        0.0000000000	        0.0000000000	        0.2076431971	        0.0000770316	        1.3583900146	        0.0000000000	        0.0000000000	        0.0000000000	
        0.5070000000	       -0.0000000000	        0.0000000000	        0.0000000000	        0.1988394958	        0.0000558755	       -0.3004071327	       -0.0000000000	        0.0000000000	       -0.0000000000	       23.3959467784	      586.6403437097	       72.5469921930	        0.2029003516	       -0.0000795827	        0.4543649445	      102.0489836604	        1.0066058913	      -37.9115248510	        0.0000000000	        0.0000000000	        0.0000000000	        0.2076431971	        0.0000770316	        1.3583900146	        0.0000000000	        0.0000000000	        0.0000000000	
        0.5080000000	       -0.0000000000	        0.0000000000	        0.0000000000	        0.1988394958	        0.0000558755	       -0.3004071327	       -0.0000000000	        0.0000000000	       -0.0000000000	       23.1662852280	      585.8379006211	       71.4095188058	        0.2029003516	       -0.0000795827	        0.4543649445	      101.8547506402	        0.9666298149	      -37.8471183884	        0.0000000000	        0.0000000000	        0.0000000000	        0.2076431971	        0.0000770316	        1.3583900146	        0.0000000000	        0.0000000000	        0.0000000000	
        0.5090000000	       -0.0000000000	        0.0000000000	        0.0000000000	        0.1988394958	        0.0000558755	       -0.3004071327	       -0.0000000000	        0.0000000000	       -0.0000000000	       22.9364455876	      584.9956146989	       70.2688051385	        0.2029003516	       -0.0000795827	        0.4543649445	      101.6500798745	        0.9259975077	      -37.7799314634	        0.0000000000	        0.0000000000	        0.0000000000	        0.2076431971	        0.0000770316	        1.3583900146	        0.0000000000	        0.0000000000	        0.0000000000	
        0.5100000000	       -0.0000000000	        0.0000000000	        0.0000000000	        0.1988394958	        0.0000558755	       -0.3004071327	       -0.0000000000	       -0.0000000000	       -0.0000000000	       22.7087046394	      584.1110041727	       69.1273889597	        0.2029003516	       -0.0000795827	        0.4543649445	      101.4358222357	        0.8842533676	      -37.7105035355	        0.0000000000	        0.0000000000	        0.0000000000	        0.2076431971	        0.0000770316	        1.3583900146	        0.0000000000	        0.0000000000	        0.0000000000	
        0.5110000000	       -0.0000000000	        0.0000000000	        0.0000000000	        0.1988394958	        0.0000558755	       -0.3004071327	       -0.0000000000	       -0.0000000000	       -0.0000000000	       22.4858294183	      583.1780426642	       67.9883936998	        0.2029003516	       -0.0000795827	        0.4543649445	      101.2130194875	        0.8410121746	      -37.6393573542	        0.0000000000	        0.0000000000	        0.0000000000	        0.2076431971	        0.0000770316	        1.3583900146	        0.0000000000	        0.0000000000	        0.0000000000	
        0.5120000000	       -0.0000000000	        0.0000000000	        0.0000000000	        0.1988394958	        0.0000558755	       -0.3004071327	       -0.0000000000	       -0.0000000000	       -0.0000000000	       22.2711411292	      582.1871672810	       66.8550054038	        0.2029003516	       -0.0000795827	        0.4543649445	      100.9825339646	        0.7960718948	      -37.5667780043	        0.0000000000	        0.0000000000	        0.0000000000	        0.2076431971	        0.0000770316	        1.3583900146	        0.0000000000	        0.0000000000	        0.0000000000	
        0.5130000000	        0.0000000000	        0.0000000000	        0.0000000000	        0.1988394958	        0.0000558755	       -0.3004071327	       -0.0000000000	       -0.0000000000	       -0.0000000000	       22.0681947913	      581.1269855063	       65.7299365957	        0.2029003516	       -0.0000795827	        0.4543649445	      100.7449041068	        0.7493868621	      -37.4925651020	        0.0000000000	        0.0000000000	        0.0000000000	        0.2076431971	        0.0000770316	        1.3583900146	        0.0000000000	        0.0000000000	        0.0000000000	
        0.5140000000	        0.0000000000	        0.0000000000	       -0.0000000000	        0.1988394958	        0.0000558755	       -0.3004071327	       -0.0000000000	       -0.0000000000	        0.0000000000	       21.8800912887	      579.9869627881	       64.6152120521	        0.2029003516	       -0.0000795827	        0.4543649445	      100.5004835015	        0.7009967500	      -37.4160257591	        0.0000000000	        0.0000000000	        0.0000000000	        0.2076431971	        0.0000770316	        1.3583900146	        0.0000000000	        0.0000000000	        0.0000000000	
        0.5150000000	        0.0000000000	        0.0000000000	       -0.0000000000	        0.1988394958	        0.0000558755	       -0.3004071327	        0.0000000000	       -0.0000000000	        0.0000000000	       21.7088544319	      578.7593561317	       63.5122599997	        0.2029003516	       -0.0000795827	        0.4543649445	      100.2495412378	        0.6509786570	      -37.3361312751	        0.0000000000	        0.0000000000	        0.0000000000	        0.2076431971	        0.0000770316	        1.3583900146	        0.0000000000	        0.0000000000	        0.0000000000	
